<?xml version="1.0" encoding="utf-8"?>
<!-- Generator: Adobe Illustrator 27.4.1, SVG Export Plug-In . SVG Version: 6.00 Build 0)  -->
<svg version="1.1" id="Capa_1" xmlns="http://www.w3.org/2000/svg" xmlns:xlink="http://www.w3.org/1999/xlink" x="0px" y="0px"
	 viewBox="0 0 120.2 66.4" style="enable-background:new 0 0 120.2 66.4;" xml:space="preserve">
<style type="text/css">
	.st0{fill:#1C85C7;}
	.st1{fill:#1B1C1C;}
	.st2{fill:#FFFFFF;}
	.st3{font-family:'JavaneseText';}
	.st4{font-size:11.6409px;}
	.st5{font-size:16.9879px;}
</style>
<polygon class="st0" points="24.9,35.4 29.4,6.5 105.3,7.4 100.5,35.4 "/>
<path class="st1" d="M4.3,35.4c-0.6,0.2-1.1,0.8-1.1,1.4c0,0.7,0.4,1.4,1.1,1.6c6.4,0,12.8,0,19.2,0v3H8.8c-0.1,0-1,0.3-1.2,1.1
	c-0.2,0.8,0.3,1.7,1.2,2.1c3.3,0,6.6,0,9.9,0c0,1-0.1,1.9-0.1,2.9c-5.6,0-11.2,0.1-16.7,0.1c-0.6,0.3-1,0.8-1,1.5
	c0,0.7,0.4,1.3,1.1,1.6c6.8,0,13.6,0,20.4,0c0.4,0.7,0.8,1.4,1.2,2.1c22,0,43.9,0.1,65.9,0.1l14.5-9.1l-11.4-8.5H4.3z"/>
<text transform="matrix(0.8595 0 0 1 26.6001 48.1891)" class="st2 st3 st4">STREAMING</text>
<text transform="matrix(1.8585 0 0 1 28.8716 28.1354)" class="st3 st5">LIVE</text>
<rect x="8.3" y="30" class="st0" width="6.5" height="3.1"/>
<rect x="17.5" y="19.4" class="st0" width="6.5" height="3.1"/>
<rect x="9.9" y="8" class="st0" width="6.5" height="3.1"/>
<g>
	
		<image style="overflow:visible;" width="418" height="417" xlink:href="799E73C2.png"  transform="matrix(0.24 0 0 0.24 51.9738 -6.2692)">
	</image>
</g>
<circle class="st0" cx="102.2" cy="43.7" r="14"/>
<path class="st2" d="M98.3,37.6c0,4.1,0,8.2,0,12.2c3.8-2,7.5-4,11.3-6C105.8,41.8,102,39.7,98.3,37.6z"/>
</svg>
